M48
;DRILL file {KiCad 4.0.0-rc2-stable} date 11/19/2015 9:46:13 PM
;FORMAT={2:4/ absolute / inch / keep zeros}
FMAT,2
INCH,TZ
T1C0.032
T2C0.040
T3C0.060
T4C0.120
%
G90
G05
M72
T1
X048450Y-037600
X048450Y-039600
T2
X045500Y-037750
X045500Y-038750
X045500Y-039750
X045600Y-032900
X045600Y-033900
X045600Y-034900
X047050Y-032900
X047050Y-033900
X047050Y-034900
X048100Y-027900
X048450Y-042000
X048450Y-043000
X048450Y-044000
X048500Y-032900
X048500Y-033900
X048500Y-034900
X049100Y-027900
X049950Y-042000
X049950Y-043000
X049950Y-044000
X050100Y-027900
X050550Y-032900
X050550Y-033900
X050550Y-034900
X051100Y-027900
X051400Y-042000
X051400Y-043000
X051400Y-044000
X051700Y-046900
X052000Y-032900
X052000Y-033900
X052000Y-034900
X052100Y-027900
X052700Y-046900
X053100Y-027900
X053450Y-032900
X053450Y-033900
X053450Y-034900
X053700Y-046900
X054000Y-042050
X054000Y-043050
X054000Y-044050
X054100Y-027900
X054700Y-046900
X055100Y-027900
X055450Y-042050
X055450Y-043050
X055450Y-044050
X055700Y-046900
X055750Y-032900
X055750Y-033900
X055750Y-034900
X056100Y-027900
X056700Y-046900
X056900Y-042050
X056900Y-043050
X056900Y-044050
X057100Y-027900
X057200Y-032900
X057200Y-033900
X057200Y-034900
X057700Y-046900
X058650Y-032900
X058650Y-033900
X058650Y-034900
X058700Y-027900
X058700Y-046900
X059150Y-042100
X059150Y-043100
X059150Y-044100
X059700Y-027900
X060600Y-042100
X060600Y-043100
X060600Y-044100
X060700Y-027900
X060700Y-046900
X060850Y-032900
X060850Y-033900
X060850Y-034900
X061700Y-027900
X061700Y-046900
X062000Y-042100
X062000Y-043100
X062000Y-044100
X062300Y-032900
X062300Y-033900
X062300Y-034900
X062700Y-027900
X062700Y-046900
X063700Y-027900
X063700Y-046900
X063750Y-032900
X063750Y-033900
X063750Y-034900
X064700Y-027900
X064700Y-046900
X065450Y-040850
X065450Y-041850
X065450Y-042850
X065700Y-027900
X065700Y-046900
X066700Y-046900
X066850Y-040850
X066850Y-041850
X066850Y-042850
X067700Y-027900
X067700Y-046900
X068250Y-040850
X068250Y-041850
X068250Y-042850
X068700Y-027900
X069700Y-027900
X069700Y-046900
X070700Y-027900
X070700Y-046900
X071700Y-027900
X071700Y-046900
X072700Y-027900
X072700Y-046900
X072850Y-042000
X072850Y-043000
X072850Y-044000
X072850Y-045000
X072900Y-036950
X072900Y-037950
X072900Y-038950
X072900Y-039950
X073700Y-027900
X073700Y-046900
X074700Y-027900
X074700Y-046900
X075100Y-036900
X075100Y-037900
X075100Y-038900
X075100Y-039900
X075100Y-041950
X075100Y-042950
X075100Y-043950
X075100Y-044950
X075700Y-046900
X076700Y-046900
X077700Y-027900
X077700Y-028900
X077700Y-029900
X077700Y-030900
X077700Y-031900
X077700Y-032900
X077700Y-033900
X077700Y-034900
X077700Y-035900
X077700Y-036900
X077700Y-037900
X077700Y-038900
X077700Y-039900
X077700Y-040900
X077700Y-041900
X077700Y-042900
X077700Y-043900
X077700Y-044900
X078700Y-027900
X078700Y-028900
X078700Y-029900
X078700Y-030900
X078700Y-031900
X078700Y-032900
X078700Y-033900
X078700Y-034900
X078700Y-035900
X078700Y-036900
X078700Y-037900
X078700Y-038900
X078700Y-039900
X078700Y-040900
X078700Y-041900
X078700Y-042900
X078700Y-043900
X078700Y-044900
T3
X042750Y-037800
X042750Y-039800
T4
X046200Y-046900
X046700Y-027900
X066700Y-033900
X066700Y-044900
X076200Y-027900
X078700Y-046900
T0
M30
